<mxfile host="app.diagrams.net" modified="2021-08-06T11:09:30.490Z" agent="5.0 (Windows)" etag="2AyzaIEkqFfTFqppSZcG" version="14.7.10" type="github">
  <diagram id="MT0tSzwY09v2EtnFrdxi" name="Page-1">
    <mxGraphModel dx="2085" dy="2350" grid="1" gridSize="10" guides="1" tooltips="1" connect="1" arrows="1" fold="1" page="1" pageScale="1" pageWidth="900" pageHeight="1600" math="0" shadow="0">
      <root>
        <mxCell id="0" />
        <mxCell id="1" parent="0" />
        <mxCell id="ckfpBSU4DDX4gNmp0WQc-1" value="" style="rounded=0;whiteSpace=wrap;html=1;strokeColor=none;fillColor=#002400;" parent="1" vertex="1">
          <mxGeometry x="-310" y="-310" width="620" height="620" as="geometry" />
        </mxCell>
        <mxCell id="Wh_YZikKkqsMIn4tC9JH-39" value="" style="endArrow=none;html=1;fontSize=48;fontColor=#FF0000;strokeWidth=4;rounded=0;strokeColor=#FF8000;" parent="1" edge="1">
          <mxGeometry x="40" y="150" width="50" height="50" as="geometry">
            <mxPoint x="105" y="185" as="sourcePoint" />
            <mxPoint x="105" y="185" as="targetPoint" />
            <Array as="points">
              <mxPoint x="105" y="215" />
              <mxPoint x="115" y="225" />
              <mxPoint x="135" y="225" />
              <mxPoint x="145" y="215" />
              <mxPoint x="145" y="165" />
              <mxPoint x="135" y="155" />
              <mxPoint x="115" y="155" />
              <mxPoint x="105" y="165" />
            </Array>
          </mxGeometry>
        </mxCell>
        <mxCell id="Wh_YZikKkqsMIn4tC9JH-10" value="" style="ellipse;whiteSpace=wrap;html=1;aspect=fixed;fontSize=48;fontColor=#FF0000;strokeColor=#FF0000;fillColor=none;strokeWidth=14;" parent="1" vertex="1">
          <mxGeometry x="-153" y="-132" width="24" height="24" as="geometry" />
        </mxCell>
        <mxCell id="Wh_YZikKkqsMIn4tC9JH-11" value="" style="endArrow=none;html=1;fontSize=48;fontColor=#FF0000;strokeColor=#FF0000;strokeWidth=16;rounded=0;jumpStyle=none;exitX=1;exitY=0.5;exitDx=0;exitDy=0;entryX=1;entryY=0.5;entryDx=0;entryDy=0;" parent="1" source="Wh_YZikKkqsMIn4tC9JH-10" target="Wh_YZikKkqsMIn4tC9JH-12" edge="1">
          <mxGeometry x="-161" y="-140" width="50" height="50" as="geometry">
            <mxPoint x="399" y="-350" as="sourcePoint" />
            <mxPoint x="-21" y="-40" as="targetPoint" />
            <Array as="points">
              <mxPoint x="-61" y="-120" />
              <mxPoint x="-21" y="-80" />
              <mxPoint x="-21" y="-40" />
              <mxPoint x="-61" />
            </Array>
          </mxGeometry>
        </mxCell>
        <mxCell id="Wh_YZikKkqsMIn4tC9JH-12" value="" style="ellipse;whiteSpace=wrap;html=1;aspect=fixed;fontSize=48;fontColor=#FF0000;strokeColor=#FF0000;fillColor=none;strokeWidth=14;" parent="1" vertex="1">
          <mxGeometry x="-153" y="-12" width="24" height="24" as="geometry" />
        </mxCell>
        <mxCell id="Wh_YZikKkqsMIn4tC9JH-13" value="" style="endArrow=none;html=1;fontSize=48;fontColor=#FF0000;strokeColor=#FF0000;strokeWidth=16;rounded=0;jumpStyle=none;exitX=0.5;exitY=1;exitDx=0;exitDy=0;entryX=0.5;entryY=0;entryDx=0;entryDy=0;" parent="1" source="Wh_YZikKkqsMIn4tC9JH-10" target="Wh_YZikKkqsMIn4tC9JH-12" edge="1">
          <mxGeometry x="-161" y="-140" width="50" height="50" as="geometry">
            <mxPoint x="-111" y="-110" as="sourcePoint" />
            <mxPoint x="-111" y="10" as="targetPoint" />
            <Array as="points" />
          </mxGeometry>
        </mxCell>
        <mxCell id="Wh_YZikKkqsMIn4tC9JH-14" value="" style="endArrow=none;html=1;fontSize=48;fontColor=#FF0000;strokeColor=#FF0000;strokeWidth=16;rounded=0;jumpStyle=none;exitX=1;exitY=0.5;exitDx=0;exitDy=0;entryX=1;entryY=0.5;entryDx=0;entryDy=0;" parent="1" source="Wh_YZikKkqsMIn4tC9JH-12" target="Wh_YZikKkqsMIn4tC9JH-15" edge="1">
          <mxGeometry x="-161" y="-140" width="50" height="50" as="geometry">
            <mxPoint x="-121" as="sourcePoint" />
            <mxPoint x="-121" y="120" as="targetPoint" />
            <Array as="points">
              <mxPoint x="-61" />
              <mxPoint x="-21" y="40" />
              <mxPoint x="-21" y="80" />
              <mxPoint x="-61" y="120" />
            </Array>
          </mxGeometry>
        </mxCell>
        <mxCell id="Wh_YZikKkqsMIn4tC9JH-15" value="" style="ellipse;whiteSpace=wrap;html=1;aspect=fixed;fontSize=48;fontColor=#FF0000;strokeColor=#FF0000;fillColor=none;strokeWidth=14;" parent="1" vertex="1">
          <mxGeometry x="-153" y="108" width="24" height="24" as="geometry" />
        </mxCell>
        <mxCell id="Wh_YZikKkqsMIn4tC9JH-16" value="" style="endArrow=none;html=1;fontSize=48;fontColor=#FF0000;strokeColor=#FF0000;strokeWidth=16;rounded=0;jumpStyle=none;exitX=0.5;exitY=1;exitDx=0;exitDy=0;entryX=0.5;entryY=0;entryDx=0;entryDy=0;" parent="1" source="Wh_YZikKkqsMIn4tC9JH-12" target="Wh_YZikKkqsMIn4tC9JH-15" edge="1">
          <mxGeometry x="-161" y="-140" width="50" height="50" as="geometry">
            <mxPoint x="-131" y="-90" as="sourcePoint" />
            <mxPoint x="-131" y="-10" as="targetPoint" />
            <Array as="points" />
          </mxGeometry>
        </mxCell>
        <mxCell id="Wh_YZikKkqsMIn4tC9JH-19" value="" style="ellipse;whiteSpace=wrap;html=1;aspect=fixed;fontSize=48;fontColor=#FF0000;strokeColor=#FF0000;fillColor=none;strokeWidth=14;" parent="1" vertex="1">
          <mxGeometry x="28" y="-132" width="24" height="24" as="geometry" />
        </mxCell>
        <mxCell id="Wh_YZikKkqsMIn4tC9JH-20" value="" style="endArrow=none;html=1;fontSize=48;fontColor=#FF0000;strokeColor=#FF0000;strokeWidth=16;rounded=0;jumpStyle=none;exitX=1;exitY=0.5;exitDx=0;exitDy=0;entryX=1;entryY=0.5;entryDx=0;entryDy=0;" parent="1" source="Wh_YZikKkqsMIn4tC9JH-19" target="Wh_YZikKkqsMIn4tC9JH-21" edge="1">
          <mxGeometry x="20" y="-140" width="50" height="50" as="geometry">
            <mxPoint x="580" y="-350" as="sourcePoint" />
            <mxPoint x="160" y="-40" as="targetPoint" />
            <Array as="points">
              <mxPoint x="120" y="-120" />
              <mxPoint x="160" y="-80" />
              <mxPoint x="160" y="-40" />
              <mxPoint x="120" />
            </Array>
          </mxGeometry>
        </mxCell>
        <mxCell id="Wh_YZikKkqsMIn4tC9JH-21" value="" style="ellipse;whiteSpace=wrap;html=1;aspect=fixed;fontSize=48;fontColor=#FF0000;strokeColor=#FF0000;fillColor=none;strokeWidth=14;" parent="1" vertex="1">
          <mxGeometry x="28" y="-12" width="24" height="24" as="geometry" />
        </mxCell>
        <mxCell id="Wh_YZikKkqsMIn4tC9JH-22" value="" style="endArrow=none;html=1;fontSize=48;fontColor=#FF0000;strokeColor=#FF0000;strokeWidth=16;rounded=0;jumpStyle=none;exitX=0.5;exitY=1;exitDx=0;exitDy=0;entryX=0.5;entryY=0;entryDx=0;entryDy=0;" parent="1" source="Wh_YZikKkqsMIn4tC9JH-19" target="Wh_YZikKkqsMIn4tC9JH-21" edge="1">
          <mxGeometry x="20" y="-140" width="50" height="50" as="geometry">
            <mxPoint x="70" y="-110" as="sourcePoint" />
            <mxPoint x="70" y="10" as="targetPoint" />
            <Array as="points" />
          </mxGeometry>
        </mxCell>
        <mxCell id="Wh_YZikKkqsMIn4tC9JH-23" value="" style="endArrow=none;html=1;fontSize=48;fontColor=#FF0000;strokeColor=#FF0000;strokeWidth=16;rounded=0;jumpStyle=none;exitX=1;exitY=0.5;exitDx=0;exitDy=0;entryX=1;entryY=0.5;entryDx=0;entryDy=0;" parent="1" source="Wh_YZikKkqsMIn4tC9JH-21" target="Wh_YZikKkqsMIn4tC9JH-24" edge="1">
          <mxGeometry x="20" y="-140" width="50" height="50" as="geometry">
            <mxPoint x="60" as="sourcePoint" />
            <mxPoint x="60" y="120" as="targetPoint" />
            <Array as="points">
              <mxPoint x="120" />
              <mxPoint x="160" y="40" />
              <mxPoint x="160" y="80" />
              <mxPoint x="120" y="120" />
            </Array>
          </mxGeometry>
        </mxCell>
        <mxCell id="Wh_YZikKkqsMIn4tC9JH-24" value="" style="ellipse;whiteSpace=wrap;html=1;aspect=fixed;fontSize=48;fontColor=#FF0000;strokeColor=#FF0000;fillColor=none;strokeWidth=14;" parent="1" vertex="1">
          <mxGeometry x="28" y="108" width="24" height="24" as="geometry" />
        </mxCell>
        <mxCell id="Wh_YZikKkqsMIn4tC9JH-25" value="" style="endArrow=none;html=1;fontSize=48;fontColor=#FF0000;strokeColor=#FF0000;strokeWidth=16;rounded=0;jumpStyle=none;exitX=0.5;exitY=1;exitDx=0;exitDy=0;entryX=0.5;entryY=0;entryDx=0;entryDy=0;" parent="1" source="Wh_YZikKkqsMIn4tC9JH-21" target="Wh_YZikKkqsMIn4tC9JH-24" edge="1">
          <mxGeometry x="20" y="-140" width="50" height="50" as="geometry">
            <mxPoint x="50" y="-90" as="sourcePoint" />
            <mxPoint x="50" y="-10" as="targetPoint" />
            <Array as="points" />
          </mxGeometry>
        </mxCell>
        <mxCell id="Wh_YZikKkqsMIn4tC9JH-67" value="" style="group" parent="1" vertex="1" connectable="0">
          <mxGeometry x="110" y="-220" width="35" height="70" as="geometry" />
        </mxCell>
        <mxCell id="Wh_YZikKkqsMIn4tC9JH-30" value="" style="ellipse;whiteSpace=wrap;html=1;aspect=fixed;fontSize=48;fontColor=#FF0000;strokeWidth=4;fillColor=none;strokeColor=#FF8000;" parent="Wh_YZikKkqsMIn4tC9JH-67" vertex="1">
          <mxGeometry x="25" y="25" width="10" height="10" as="geometry" />
        </mxCell>
        <mxCell id="Wh_YZikKkqsMIn4tC9JH-31" value="" style="endArrow=none;html=1;fontSize=48;fontColor=#FF0000;strokeWidth=4;rounded=0;entryX=0.5;entryY=0;entryDx=0;entryDy=0;exitX=0;exitY=0.5;exitDx=0;exitDy=0;strokeColor=#FF8000;" parent="Wh_YZikKkqsMIn4tC9JH-67" source="Wh_YZikKkqsMIn4tC9JH-30" target="Wh_YZikKkqsMIn4tC9JH-30" edge="1">
          <mxGeometry x="-40" width="50" height="50" as="geometry">
            <mxPoint x="10" y="20" as="sourcePoint" />
            <mxPoint x="-35" y="20" as="targetPoint" />
            <Array as="points">
              <mxPoint x="10" y="30" />
              <mxPoint y="20" />
              <mxPoint y="10" />
              <mxPoint x="10" />
              <mxPoint x="20" />
              <mxPoint x="30" y="10" />
            </Array>
          </mxGeometry>
        </mxCell>
        <mxCell id="Wh_YZikKkqsMIn4tC9JH-32" value="" style="endArrow=none;html=1;fontSize=48;fontColor=#FF0000;strokeWidth=4;rounded=0;entryX=0.5;entryY=1;entryDx=0;entryDy=0;strokeColor=#FF8000;" parent="Wh_YZikKkqsMIn4tC9JH-67" target="Wh_YZikKkqsMIn4tC9JH-30" edge="1">
          <mxGeometry x="-40" width="50" height="50" as="geometry">
            <mxPoint y="50" as="sourcePoint" />
            <mxPoint x="-35" y="20" as="targetPoint" />
            <Array as="points">
              <mxPoint y="60" />
              <mxPoint x="10" y="70" />
              <mxPoint x="20" y="70" />
              <mxPoint x="30" y="60" />
            </Array>
          </mxGeometry>
        </mxCell>
        <mxCell id="Wh_YZikKkqsMIn4tC9JH-69" value="" style="group" parent="1" vertex="1" connectable="0">
          <mxGeometry x="-90" y="150" width="45" height="80" as="geometry" />
        </mxCell>
        <mxCell id="Wh_YZikKkqsMIn4tC9JH-40" value="" style="endArrow=none;html=1;fontSize=48;fontColor=#FF0000;strokeWidth=4;rounded=0;entryX=1;entryY=0.5;entryDx=0;entryDy=0;strokeColor=#FF8000;" parent="Wh_YZikKkqsMIn4tC9JH-69" target="Wh_YZikKkqsMIn4tC9JH-41" edge="1">
          <mxGeometry width="50" height="50" as="geometry">
            <mxPoint x="45" y="25" as="sourcePoint" />
            <mxPoint x="5" y="25" as="targetPoint" />
            <Array as="points">
              <mxPoint x="45" y="15" />
              <mxPoint x="35" y="5" />
            </Array>
          </mxGeometry>
        </mxCell>
        <mxCell id="Wh_YZikKkqsMIn4tC9JH-41" value="" style="ellipse;whiteSpace=wrap;html=1;aspect=fixed;fontSize=48;fontColor=#FF0000;strokeWidth=4;fillColor=none;strokeColor=#FF8000;" parent="Wh_YZikKkqsMIn4tC9JH-69" vertex="1">
          <mxGeometry width="10" height="10" as="geometry" />
        </mxCell>
        <mxCell id="Wh_YZikKkqsMIn4tC9JH-42" value="" style="ellipse;whiteSpace=wrap;html=1;aspect=fixed;fontSize=48;fontColor=#FF0000;strokeWidth=4;fillColor=none;strokeColor=#FF8000;" parent="Wh_YZikKkqsMIn4tC9JH-69" vertex="1">
          <mxGeometry y="35" width="10" height="10" as="geometry" />
        </mxCell>
        <mxCell id="Wh_YZikKkqsMIn4tC9JH-43" value="" style="endArrow=none;html=1;fontSize=48;fontColor=#FF0000;strokeWidth=4;rounded=0;entryX=1;entryY=0.5;entryDx=0;entryDy=0;strokeColor=#FF8000;" parent="Wh_YZikKkqsMIn4tC9JH-69" target="Wh_YZikKkqsMIn4tC9JH-42" edge="1">
          <mxGeometry width="50" height="50" as="geometry">
            <mxPoint x="45" y="20" as="sourcePoint" />
            <mxPoint x="15" y="45" as="targetPoint" />
            <Array as="points">
              <mxPoint x="45" y="30" />
              <mxPoint x="35" y="40" />
            </Array>
          </mxGeometry>
        </mxCell>
        <mxCell id="Wh_YZikKkqsMIn4tC9JH-44" value="" style="endArrow=none;html=1;fontSize=48;fontColor=#FF0000;strokeWidth=4;rounded=0;entryX=1;entryY=0.5;entryDx=0;entryDy=0;strokeColor=#FF8000;" parent="Wh_YZikKkqsMIn4tC9JH-69" edge="1">
          <mxGeometry width="50" height="50" as="geometry">
            <mxPoint x="45" y="60" as="sourcePoint" />
            <mxPoint x="10.00000000003456" y="40" as="targetPoint" />
            <Array as="points">
              <mxPoint x="45" y="50" />
              <mxPoint x="35" y="40" />
            </Array>
          </mxGeometry>
        </mxCell>
        <mxCell id="Wh_YZikKkqsMIn4tC9JH-45" value="" style="ellipse;whiteSpace=wrap;html=1;aspect=fixed;fontSize=48;fontColor=#FF0000;strokeWidth=4;fillColor=none;strokeColor=#FF8000;" parent="Wh_YZikKkqsMIn4tC9JH-69" vertex="1">
          <mxGeometry y="70" width="10" height="10" as="geometry" />
        </mxCell>
        <mxCell id="Wh_YZikKkqsMIn4tC9JH-46" value="" style="endArrow=none;html=1;fontSize=48;fontColor=#FF0000;strokeWidth=4;rounded=0;entryX=1;entryY=0.5;entryDx=0;entryDy=0;strokeColor=#FF8000;" parent="Wh_YZikKkqsMIn4tC9JH-69" target="Wh_YZikKkqsMIn4tC9JH-45" edge="1">
          <mxGeometry width="50" height="50" as="geometry">
            <mxPoint x="45" y="55" as="sourcePoint" />
            <mxPoint x="15" y="80" as="targetPoint" />
            <Array as="points">
              <mxPoint x="45" y="65" />
              <mxPoint x="35" y="75" />
            </Array>
          </mxGeometry>
        </mxCell>
        <mxCell id="Wh_YZikKkqsMIn4tC9JH-70" value="" style="group" parent="1" vertex="1" connectable="0">
          <mxGeometry x="210" y="-35.5" width="35" height="75" as="geometry" />
        </mxCell>
        <mxCell id="Wh_YZikKkqsMIn4tC9JH-34" value="" style="ellipse;whiteSpace=wrap;html=1;aspect=fixed;fontSize=48;fontColor=#FF0000;strokeWidth=4;fillColor=none;strokeColor=#FF8000;" parent="Wh_YZikKkqsMIn4tC9JH-70" vertex="1">
          <mxGeometry width="10" height="10" as="geometry" />
        </mxCell>
        <mxCell id="Wh_YZikKkqsMIn4tC9JH-35" value="" style="endArrow=none;html=1;fontSize=48;fontColor=#FF0000;strokeWidth=4;rounded=0;entryX=1;entryY=0.5;entryDx=0;entryDy=0;strokeColor=#FF8000;" parent="Wh_YZikKkqsMIn4tC9JH-70" target="Wh_YZikKkqsMIn4tC9JH-34" edge="1">
          <mxGeometry width="50" height="50" as="geometry">
            <mxPoint x="35" y="5" as="sourcePoint" />
            <mxPoint x="-63.53553390592947" y="23.535533905929697" as="targetPoint" />
          </mxGeometry>
        </mxCell>
        <mxCell id="Wh_YZikKkqsMIn4tC9JH-36" value="" style="ellipse;whiteSpace=wrap;html=1;aspect=fixed;fontSize=48;fontColor=#FF0000;strokeWidth=4;fillColor=none;strokeColor=#FF8000;" parent="Wh_YZikKkqsMIn4tC9JH-70" vertex="1">
          <mxGeometry y="30" width="10" height="10" as="geometry" />
        </mxCell>
        <mxCell id="Wh_YZikKkqsMIn4tC9JH-37" value="" style="endArrow=none;html=1;fontSize=48;fontColor=#FF0000;strokeWidth=4;rounded=0;entryX=0.5;entryY=1;entryDx=0;entryDy=0;exitX=0.5;exitY=0;exitDx=0;exitDy=0;strokeColor=#FF8000;" parent="Wh_YZikKkqsMIn4tC9JH-70" source="Wh_YZikKkqsMIn4tC9JH-36" target="Wh_YZikKkqsMIn4tC9JH-34" edge="1">
          <mxGeometry width="50" height="50" as="geometry">
            <mxPoint x="55" y="15" as="sourcePoint" />
            <mxPoint x="20.00000000003456" y="15" as="targetPoint" />
          </mxGeometry>
        </mxCell>
        <mxCell id="Wh_YZikKkqsMIn4tC9JH-38" value="" style="endArrow=none;html=1;fontSize=48;fontColor=#FF0000;strokeWidth=4;rounded=0;entryX=1;entryY=0.5;entryDx=0;entryDy=0;strokeColor=#FF8000;" parent="Wh_YZikKkqsMIn4tC9JH-70" target="Wh_YZikKkqsMIn4tC9JH-36" edge="1">
          <mxGeometry width="50" height="50" as="geometry">
            <mxPoint x="5" y="75" as="sourcePoint" />
            <mxPoint x="20.00000000003456" y="15" as="targetPoint" />
            <Array as="points">
              <mxPoint x="25" y="75" />
              <mxPoint x="35" y="65" />
              <mxPoint x="35" y="45" />
              <mxPoint x="25" y="35" />
            </Array>
          </mxGeometry>
        </mxCell>
        <mxCell id="Wh_YZikKkqsMIn4tC9JH-71" value="" style="group" parent="1" vertex="1" connectable="0">
          <mxGeometry x="-240" y="50" width="45" height="75" as="geometry" />
        </mxCell>
        <mxCell id="Wh_YZikKkqsMIn4tC9JH-47" value="" style="endArrow=none;html=1;fontSize=48;fontColor=#FF0000;strokeWidth=4;rounded=0;exitX=1;exitY=0;exitDx=0;exitDy=0;strokeColor=#FF8000;" parent="Wh_YZikKkqsMIn4tC9JH-71" source="Wh_YZikKkqsMIn4tC9JH-48" edge="1">
          <mxGeometry width="50" height="50" as="geometry">
            <mxPoint x="15" y="60" as="sourcePoint" />
            <mxPoint x="5" y="20" as="targetPoint" />
            <Array as="points">
              <mxPoint x="45" y="30" />
              <mxPoint x="45" y="10" />
              <mxPoint x="35" />
              <mxPoint x="15" />
              <mxPoint x="5" y="10" />
            </Array>
          </mxGeometry>
        </mxCell>
        <mxCell id="Wh_YZikKkqsMIn4tC9JH-48" value="" style="ellipse;whiteSpace=wrap;html=1;aspect=fixed;fontSize=48;fontColor=#FF0000;strokeWidth=4;fillColor=none;strokeColor=#FF8000;" parent="Wh_YZikKkqsMIn4tC9JH-71" vertex="1">
          <mxGeometry y="65" width="10" height="10" as="geometry" />
        </mxCell>
        <mxCell id="Wh_YZikKkqsMIn4tC9JH-49" value="" style="endArrow=none;html=1;fontSize=48;fontColor=#FF0000;strokeWidth=4;rounded=0;entryX=1;entryY=0.5;entryDx=0;entryDy=0;strokeColor=#FF8000;" parent="Wh_YZikKkqsMIn4tC9JH-71" target="Wh_YZikKkqsMIn4tC9JH-48" edge="1">
          <mxGeometry width="50" height="50" as="geometry">
            <mxPoint x="45" y="70" as="sourcePoint" />
            <mxPoint x="-15" y="80" as="targetPoint" />
          </mxGeometry>
        </mxCell>
        <mxCell id="Wh_YZikKkqsMIn4tC9JH-72" value="" style="group" parent="1" vertex="1" connectable="0">
          <mxGeometry x="-237.5" y="-120" width="40" height="70" as="geometry" />
        </mxCell>
        <mxCell id="Wh_YZikKkqsMIn4tC9JH-53" value="" style="ellipse;whiteSpace=wrap;html=1;aspect=fixed;fontSize=48;fontColor=#FF0000;strokeWidth=4;fillColor=none;strokeColor=#FF8000;" parent="Wh_YZikKkqsMIn4tC9JH-72" vertex="1">
          <mxGeometry x="4" y="30" width="8" height="8" as="geometry" />
        </mxCell>
        <mxCell id="Wh_YZikKkqsMIn4tC9JH-54" value="" style="ellipse;whiteSpace=wrap;html=1;aspect=fixed;fontSize=48;fontColor=#FF0000;strokeWidth=4;fillColor=none;strokeColor=#FF8000;" parent="Wh_YZikKkqsMIn4tC9JH-72" vertex="1">
          <mxGeometry x="28" y="30" width="8" height="8" as="geometry" />
        </mxCell>
        <mxCell id="Wh_YZikKkqsMIn4tC9JH-55" value="" style="endArrow=none;html=1;fontSize=48;fontColor=#FF0000;strokeWidth=4;rounded=0;entryX=1;entryY=0.5;entryDx=0;entryDy=0;exitX=0;exitY=0.5;exitDx=0;exitDy=0;strokeColor=#FF8000;" parent="Wh_YZikKkqsMIn4tC9JH-72" source="Wh_YZikKkqsMIn4tC9JH-54" target="Wh_YZikKkqsMIn4tC9JH-53" edge="1">
          <mxGeometry width="40" height="50" as="geometry">
            <mxPoint x="-8" y="80" as="sourcePoint" />
            <mxPoint x="-36.00000000000346" y="80" as="targetPoint" />
          </mxGeometry>
        </mxCell>
        <mxCell id="Wh_YZikKkqsMIn4tC9JH-56" value="" style="endArrow=none;html=1;fontSize=48;fontColor=#FF0000;strokeWidth=4;rounded=0;exitX=1;exitY=1;exitDx=0;exitDy=0;entryX=0;entryY=1;entryDx=0;entryDy=0;strokeColor=#FF8000;" parent="Wh_YZikKkqsMIn4tC9JH-72" source="Wh_YZikKkqsMIn4tC9JH-54" target="Wh_YZikKkqsMIn4tC9JH-53" edge="1">
          <mxGeometry width="40" height="50" as="geometry">
            <mxPoint x="-8" y="80" as="sourcePoint" />
            <mxPoint x="16" y="70" as="targetPoint" />
            <Array as="points">
              <mxPoint x="40" y="45" />
              <mxPoint x="40" y="60" />
              <mxPoint x="31.200000000000003" y="70" />
              <mxPoint x="8.8" y="70" />
              <mxPoint y="60" />
              <mxPoint y="45" />
            </Array>
          </mxGeometry>
        </mxCell>
        <mxCell id="Wh_YZikKkqsMIn4tC9JH-57" value="" style="endArrow=none;html=1;fontSize=48;fontColor=#FF0000;strokeWidth=4;rounded=0;entryX=0;entryY=0;entryDx=0;entryDy=0;exitX=1;exitY=0;exitDx=0;exitDy=0;strokeColor=#FF8000;" parent="Wh_YZikKkqsMIn4tC9JH-72" source="Wh_YZikKkqsMIn4tC9JH-54" target="Wh_YZikKkqsMIn4tC9JH-53" edge="1">
          <mxGeometry width="40" height="50" as="geometry">
            <mxPoint x="40" y="31" as="sourcePoint" />
            <mxPoint x="13.171572875212224" y="48.535533905985176" as="targetPoint" />
            <Array as="points">
              <mxPoint x="40" y="25" />
              <mxPoint x="40" y="10" />
              <mxPoint x="32" />
              <mxPoint x="8" />
              <mxPoint y="10" />
              <mxPoint y="25" />
            </Array>
          </mxGeometry>
        </mxCell>
        <mxCell id="Wh_YZikKkqsMIn4tC9JH-73" value="" style="group" parent="1" vertex="1" connectable="0">
          <mxGeometry x="-82.5" y="-220" width="30" height="70" as="geometry" />
        </mxCell>
        <mxCell id="Wh_YZikKkqsMIn4tC9JH-26" value="" style="ellipse;whiteSpace=wrap;html=1;aspect=fixed;fontSize=48;fontColor=#FF0000;strokeWidth=4;fillColor=none;strokeColor=#FF8000;" parent="Wh_YZikKkqsMIn4tC9JH-73" vertex="1">
          <mxGeometry x="10" width="10" height="10" as="geometry" />
        </mxCell>
        <mxCell id="Wh_YZikKkqsMIn4tC9JH-27" value="" style="endArrow=none;html=1;fontSize=48;fontColor=#FF0000;strokeWidth=4;rounded=0;entryX=0;entryY=1;entryDx=0;entryDy=0;strokeColor=#FF8000;" parent="Wh_YZikKkqsMIn4tC9JH-73" target="Wh_YZikKkqsMIn4tC9JH-26" edge="1">
          <mxGeometry width="50" height="50" as="geometry">
            <mxPoint y="20" as="sourcePoint" />
            <mxPoint x="30" y="-50" as="targetPoint" />
          </mxGeometry>
        </mxCell>
        <mxCell id="Wh_YZikKkqsMIn4tC9JH-28" value="" style="endArrow=none;html=1;fontSize=48;fontColor=#FF0000;strokeWidth=4;rounded=0;entryX=0.5;entryY=1;entryDx=0;entryDy=0;strokeColor=#FF8000;" parent="Wh_YZikKkqsMIn4tC9JH-73" target="Wh_YZikKkqsMIn4tC9JH-26" edge="1">
          <mxGeometry width="50" height="50" as="geometry">
            <mxPoint x="15" y="70" as="sourcePoint" />
            <mxPoint x="21.46446609406712" y="18.535533905932425" as="targetPoint" />
          </mxGeometry>
        </mxCell>
        <mxCell id="Wh_YZikKkqsMIn4tC9JH-29" value="" style="endArrow=none;html=1;fontSize=48;fontColor=#FF0000;strokeWidth=4;rounded=0;strokeColor=#FF8000;" parent="Wh_YZikKkqsMIn4tC9JH-73" edge="1">
          <mxGeometry width="50" height="50" as="geometry">
            <mxPoint x="30" y="70" as="sourcePoint" />
            <mxPoint y="70" as="targetPoint" />
          </mxGeometry>
        </mxCell>
      </root>
    </mxGraphModel>
  </diagram>
</mxfile>
